<svg xmlns="http://www.w3.org/2000/svg" xmlns:xlink="http://www.w3.org/1999/xlink" width="1080" zoomAndPan="magnify" viewBox="0 0 810 809.999993" height="1080" preserveAspectRatio="xMidYMid meet" version="1.0"><path fill="#436221" d="M 455.613281 367.085938 C 465.820312 367.085938 474.304688 368.742188 482.015625 373.414062 C 485.09375 375.285156 487.871094 377.546875 490.347656 380.171875 C 492.113281 382.042969 493.859375 383.960938 495.496094 385.941406 C 497.113281 387.898438 498.144531 390.160156 497.304688 392.761719 C 495.882812 397.175781 490.824219 398.746094 487.117188 395.949219 C 486.472656 395.476562 485.914062 394.894531 485.351562 394.292969 C 484.46875 393.34375 483.585938 392.398438 482.789062 391.40625 C 476.675781 383.875 468.597656 380.582031 459.078125 380.324219 C 451.199219 380.085938 443.507812 381.507812 435.863281 383.140625 C 430.371094 384.304688 424.96875 385.726562 419.84375 388.09375 C 412.304688 391.601562 406.726562 397.046875 403.539062 404.796875 C 402.679688 406.90625 402.140625 409.078125 402.097656 411.359375 C 401.96875 417.34375 404.746094 421.5625 409.980469 424.273438 C 410.753906 424.683594 411.617188 424.964844 412.414062 425.351562 C 415.988281 427.074219 417.539062 430.625 416.160156 433.9375 C 414.78125 437.273438 411.25 438.71875 407.480469 437.492188 C 394.773438 433.292969 387.042969 420.765625 389.21875 407.550781 C 391.15625 395.796875 397.640625 386.910156 407.222656 380.152344 C 412.542969 376.382812 418.550781 374.015625 424.796875 372.292969 C 435.304688 369.429688 445.964844 367.386719 455.613281 367.085938 Z M 455.613281 367.085938 " fill-opacity="1" fill-rule="nonzero"/><path fill="#bc392a" d="M 356.332031 260.90625 C 356.226562 268.183594 355.644531 275.136719 353.511719 281.894531 C 352.972656 283.59375 352.371094 285.25 351.273438 286.695312 C 348.214844 290.695312 342.292969 290.265625 340.140625 285.855469 C 339.300781 284.132812 339.320312 282.347656 339.902344 280.558594 C 345.394531 263.964844 344.316406 247.992188 335.378906 232.753906 C 331.09375 225.4375 327.304688 217.902344 325.085938 209.660156 C 323.191406 202.554688 322.09375 195.324219 321.144531 188.050781 C 320.628906 184.132812 320.023438 180.234375 319.59375 176.320312 C 319.269531 173.457031 319.789062 170.789062 322.5 169.152344 C 326.355469 166.828125 330.878906 168.636719 332.234375 173.003906 C 332.773438 174.746094 332.945312 176.554688 333.203125 178.34375 C 334.132812 185.25 334.949219 192.160156 336.175781 199.027344 C 337.855469 208.5625 341.582031 217.277344 346.449219 225.566406 C 350.390625 232.257812 353.578125 239.277344 355.0625 246.980469 C 355.988281 251.652344 356.3125 256.367188 356.332031 260.90625 Z M 356.332031 260.90625 " fill-opacity="1" fill-rule="nonzero"/><path fill="#bc392a" d="M 513.433594 397.089844 C 513.609375 390.976562 515.738281 385.53125 518.96875 380.453125 C 522.15625 375.4375 526.097656 371.003906 530.148438 366.675781 C 537.449219 358.84375 545.050781 351.265625 552.132812 343.214844 C 554.308594 340.738281 556.464844 338.222656 558.488281 335.617188 C 560.082031 333.574219 561.480469 331.441406 562.730469 329.160156 C 563.980469 326.835938 565.746094 324.984375 568.585938 324.878906 C 573.605469 324.660156 576.75 329.3125 574.855469 334.109375 C 573.582031 337.359375 571.582031 340.203125 569.46875 342.957031 C 564.195312 349.84375 558.273438 356.171875 552.351562 362.480469 C 546.492188 368.699219 540.417969 374.703125 534.863281 381.207031 C 532.539062 383.9375 530.339844 386.78125 528.703125 389.988281 C 525.367188 396.550781 526.054688 402.40625 530.902344 407.980469 C 532.453125 409.789062 533.636719 411.726562 533.292969 414.203125 C 532.625 419.324219 526.917969 421.628906 522.824219 418.421875 C 520.390625 416.503906 518.625 413.984375 517.097656 411.316406 C 514.621094 406.992188 513.328125 401.933594 513.433594 397.089844 Z M 513.433594 397.089844 " fill-opacity="1" fill-rule="nonzero"/><path fill="#ec8827" d="M 385.214844 198.726562 C 385.214844 200.726562 384.761719 201.976562 384.15625 203.160156 C 378.40625 214.375 374.875 226.277344 373.347656 238.78125 C 372.054688 249.242188 372.25 259.679688 374.597656 269.992188 C 375.953125 275.886719 378.0625 281.484375 381.917969 286.261719 C 382.910156 287.488281 384.027344 288.566406 384.761719 290.007812 C 386.3125 293.109375 385.492188 296.097656 383.210938 297.972656 C 380.691406 300.058594 377.179688 299.910156 374.683594 297.691406 C 371.601562 294.957031 369.296875 291.621094 367.339844 288.027344 C 363.441406 280.839844 361.351562 273.113281 360.339844 265.0625 C 357.433594 242.226562 361.566406 220.527344 371.105469 199.714844 C 371.773438 198.25 372.507812 196.808594 373.539062 195.5625 C 375.414062 193.257812 378.386719 192.398438 381.035156 193.367188 C 383.597656 194.292969 385.234375 196.617188 385.214844 198.726562 Z M 385.214844 198.726562 " fill-opacity="1" fill-rule="nonzero"/><path fill="#436221" d="M 533.355469 396.273438 C 533.269531 394.441406 534.042969 392.914062 535.035156 391.449219 C 538.09375 386.953125 541.925781 383.164062 546.0625 379.65625 C 549.464844 376.75 552.929688 373.929688 556.378906 371.089844 C 565.789062 363.363281 572.527344 353.65625 577.4375 342.613281 C 580.539062 335.660156 583.101562 328.492188 585.621094 321.304688 C 586.140625 319.839844 586.785156 318.484375 587.949219 317.410156 C 590.015625 315.472656 592.902344 315.039062 595.441406 316.3125 C 597.726562 317.472656 599.144531 320.25 598.800781 322.898438 C 598.738281 323.371094 598.652344 323.867188 598.5 324.316406 C 594.882812 334.863281 591.113281 345.367188 585.902344 355.269531 C 579.851562 366.761719 571.410156 376.210938 561.242188 384.195312 C 558.230469 386.566406 555.277344 388.976562 552.457031 391.578125 C 550.003906 393.859375 547.675781 396.25 545.78125 399.046875 C 545.136719 399.996094 544.316406 400.75 543.414062 401.4375 C 541.171875 403.074219 538.804688 403.050781 536.476562 401.78125 C 534.367188 400.597656 533.421875 398.660156 533.355469 396.273438 Z M 533.355469 396.273438 " fill-opacity="1" fill-rule="nonzero"/><path fill="#bc392a" d="M 547.699219 529.355469 C 547.675781 525.5 548.214844 521.734375 549.035156 517.988281 C 550.109375 513.039062 551.273438 508.089844 552.265625 503.117188 C 554.050781 494.097656 558.59375 486.867188 566.023438 481.421875 C 568.824219 479.375 571.558594 477.246094 574.25 475.070312 C 577.914062 472.164062 580.753906 468.65625 582.328125 464.160156 C 583.46875 460.867188 585.945312 459.144531 588.746094 459.1875 C 592.792969 459.25 595.742188 462.585938 595.097656 466.589844 C 594.472656 470.507812 592.601562 473.972656 590.359375 477.203125 C 587.601562 481.140625 584.027344 484.261719 580.261719 487.1875 C 577.523438 489.320312 574.683594 491.300781 572.035156 493.539062 C 568.976562 496.101562 566.820312 499.265625 565.894531 503.136719 C 564.109375 510.457031 562.363281 517.773438 561.15625 525.199219 C 560.402344 529.957031 561.199219 534.671875 562.039062 539.363281 C 562.234375 540.480469 562.429688 541.578125 562.535156 542.699219 C 562.859375 546.335938 560.535156 549.480469 557.152344 550.058594 C 553.75 550.640625 550.453125 548.488281 549.699219 544.894531 C 548.625 539.773438 547.71875 534.605469 547.699219 529.355469 Z M 547.699219 529.355469 " fill-opacity="1" fill-rule="nonzero"/><path fill="#436221" d="M 440.429688 518.570312 C 431.082031 517.882812 422.125 515.835938 413.964844 511.015625 C 404.722656 505.550781 399.855469 497.285156 398.523438 486.800781 C 397.421875 478.234375 398.261719 469.777344 399.597656 461.316406 C 400.246094 457.183594 401.085938 453.074219 402.117188 449.027344 C 402.550781 447.304688 403.390625 445.796875 404.832031 444.699219 C 406.878906 443.109375 409.742188 442.914062 411.875 444.183594 C 414.222656 445.5625 415.554688 448.296875 415.0625 451.09375 C 414.414062 454.625 413.574219 458.109375 412.929688 461.617188 C 411.703125 468.398438 410.949219 475.242188 411.3125 482.152344 C 411.421875 484.242188 411.722656 486.304688 412.21875 488.351562 C 413.382812 493.195312 416.09375 496.875 420.316406 499.457031 C 425.570312 502.664062 431.363281 504.234375 437.414062 505.074219 C 438.816406 505.269531 440.214844 505.355469 441.613281 505.59375 C 444.800781 506.109375 447 508.023438 447.535156 510.691406 C 448.355469 514.695312 445.726562 518.226562 441.636719 518.59375 C 441.226562 518.59375 440.839844 518.570312 440.429688 518.570312 Z M 440.429688 518.570312 " fill-opacity="1" fill-rule="nonzero"/><path fill="#ec8827" d="M 257.722656 258.21875 C 257.636719 244.722656 265.21875 233.445312 277.75 229.117188 C 288.453125 225.414062 298.359375 227.460938 307.191406 234.410156 C 313.457031 239.339844 317.355469 245.96875 320.199219 253.289062 C 320.800781 254.859375 321.445312 256.429688 321.746094 258.109375 C 322.5 262.242188 320.109375 265.621094 316.105469 266.160156 C 313.414062 266.503906 310.507812 264.695312 309.34375 261.855469 C 308.480469 259.722656 307.773438 257.527344 306.84375 255.441406 C 304.453125 250.167969 301.246094 245.582031 296.035156 242.675781 C 284.902344 236.476562 271.140625 244.335938 270.902344 257.054688 C 270.859375 259.015625 271.097656 260.992188 271.074219 262.972656 C 271.011719 266.589844 268.253906 269.472656 264.851562 269.625 C 261.449219 269.777344 258.5625 267.171875 258.066406 263.535156 C 257.808594 261.769531 257.746094 259.984375 257.722656 258.21875 Z M 257.722656 258.21875 " fill-opacity="1" fill-rule="nonzero"/><path fill="#ec8827" d="M 510.292969 292.289062 C 510.269531 297.046875 507.511719 299.867188 503.441406 299.652344 C 500.664062 299.5 498.210938 297.285156 497.433594 294.183594 C 496.917969 292.117188 496.507812 290.007812 495.925781 287.964844 C 494.980469 284.585938 493.621094 281.355469 491.683594 278.386719 C 487.851562 272.550781 482.25 269.882812 475.445312 269.734375 C 467.21875 269.539062 459.8125 272.335938 452.8125 276.425781 C 450.488281 277.78125 448.332031 279.441406 446.117188 280.945312 C 444.089844 282.324219 441.871094 282.949219 439.484375 282.085938 C 437.285156 281.292969 435.800781 279.71875 435.371094 277.417969 C 434.894531 274.789062 435.714844 272.507812 437.800781 270.851562 C 443.597656 266.289062 449.839844 262.523438 456.796875 259.984375 C 463.019531 257.699219 469.394531 256.324219 476.070312 256.601562 C 488.753906 257.140625 498.230469 262.886719 504.390625 273.996094 C 507.296875 279.246094 509.0625 284.949219 510.183594 290.828125 C 510.25 291.429688 510.25 292.03125 510.292969 292.289062 Z M 510.292969 292.289062 " fill-opacity="1" fill-rule="nonzero"/><path fill="#bc392a" d="M 421.261719 192.785156 C 425.59375 192.785156 428.5625 196.917969 427.316406 201.222656 C 426.839844 202.902344 425.957031 204.40625 425.269531 206 C 419.605469 219.066406 416.246094 232.667969 415.601562 246.894531 C 415.425781 250.511719 415.578125 254.128906 416.394531 257.699219 C 417.28125 261.511719 419.21875 264.332031 423.179688 265.429688 C 424.042969 265.664062 424.816406 266.117188 425.527344 266.632812 C 428.261719 268.613281 429.230469 271.691406 428.027344 274.46875 C 426.734375 277.394531 423.589844 279.007812 420.316406 278.214844 C 413.359375 276.511719 408.234375 272.488281 405.304688 265.878906 C 403.214844 261.1875 402.527344 256.238281 402.398438 251.15625 C 402.140625 240.351562 403.925781 229.828125 406.664062 219.429688 C 408.644531 211.898438 411.25 204.578125 414.628906 197.5625 C 415.554688 195.648438 416.761719 194.054688 418.785156 193.214844 C 419.5625 192.914062 420.402344 192.761719 421.261719 192.785156 Z M 421.261719 192.785156 " fill-opacity="1" fill-rule="nonzero"/><path fill="#ec8827" d="M 382.21875 453.246094 C 382.175781 447.433594 380.949219 441.839844 379.269531 436.304688 C 378.839844 434.929688 378.386719 433.550781 378.429688 432.066406 C 378.515625 428.859375 380.453125 426.40625 383.488281 425.695312 C 386.269531 425.050781 389.238281 426.46875 390.640625 429.183594 C 391.628906 431.097656 392.082031 433.183594 392.644531 435.25 C 394.238281 440.976562 395.269531 446.765625 395.355469 452.730469 C 395.484375 460.476562 393.570312 467.796875 390.789062 474.941406 C 390.015625 476.921875 389.304688 478.945312 388.703125 480.988281 C 387.410156 485.292969 388.054688 489.339844 390.167969 493.238281 C 391.652344 496.015625 393.503906 498.554688 395.3125 501.113281 C 396.476562 502.75 397.402344 504.429688 397.574219 506.496094 C 397.789062 509.035156 396.648438 510.886719 394.667969 512.242188 C 392.644531 513.621094 390.402344 513.578125 388.226562 512.480469 C 387.472656 512.09375 386.742188 511.640625 386.226562 510.953125 C 382.953125 506.5625 379.699219 502.148438 377.417969 497.132812 C 374.335938 490.375 374.058594 483.445312 376.339844 476.425781 C 377.332031 473.371094 378.472656 470.355469 379.550781 467.324219 C 381.207031 462.757812 382.242188 458.109375 382.21875 453.246094 Z M 382.21875 453.246094 " fill-opacity="1" fill-rule="nonzero"/><path fill="#436221" d="M 420.207031 281.851562 C 435.132812 282.648438 445.855469 289.964844 452.597656 303.332031 C 453.589844 305.3125 454.535156 307.335938 454.921875 309.53125 C 455.761719 314.4375 451.457031 318.464844 446.804688 317.042969 C 444.671875 316.398438 443.230469 314.933594 442.367188 312.886719 C 441.636719 311.144531 440.988281 309.359375 440.0625 307.699219 C 436.46875 301.308594 431.277344 296.917969 423.933594 295.519531 C 413.683594 293.558594 403.390625 299.308594 399.511719 308.992188 C 399.015625 310.21875 398.695312 311.53125 398.15625 312.738281 C 397.121094 315.105469 395.65625 317.128906 392.835938 317.496094 C 387.96875 318.117188 384.4375 314.15625 385.558594 309.292969 C 386.375 305.742188 387.691406 302.339844 389.628906 299.261719 C 396.625 288.050781 406.898438 282.476562 420.207031 281.851562 Z M 420.207031 281.851562 " fill-opacity="1" fill-rule="nonzero"/><path fill="#436221" d="M 384.007812 524.488281 C 383.941406 518.679688 388.917969 515.214844 393.398438 517.558594 C 395.679688 518.742188 396.84375 520.765625 397.101562 523.304688 C 398.027344 532.625 400.589844 541.472656 404.636719 549.886719 C 406.425781 553.589844 408.234375 557.269531 410.023438 560.972656 C 413.382812 567.882812 416.117188 575.007812 417.472656 582.605469 C 417.753906 584.21875 418.03125 585.855469 418.292969 587.492188 C 418.59375 589.449219 419.003906 591.363281 419.648438 593.238281 C 420.464844 595.648438 420.660156 598.082031 418.871094 600.210938 C 415.859375 603.828125 410.601562 603.398438 408.148438 599.351562 C 406.664062 596.898438 405.910156 594.164062 405.585938 591.34375 C 404.445312 581.441406 401.148438 572.25 396.605469 563.449219 C 392.945312 556.367188 389.542969 549.15625 387.28125 541.472656 C 385.601562 535.789062 384.480469 530 384.007812 524.488281 Z M 384.007812 524.488281 " fill-opacity="1" fill-rule="nonzero"/><path fill="#bc392a" d="M 279.214844 305.117188 C 269.609375 304.988281 261.105469 302.019531 254.253906 295.046875 C 250.617188 291.34375 248.3125 286.953125 247.773438 281.722656 C 247.429688 278.449219 249 275.585938 251.648438 274.46875 C 254.921875 273.089844 258.304688 274.316406 259.960938 277.480469 C 260.371094 278.277344 260.671875 279.117188 260.78125 280 C 261.167969 283.121094 262.871094 285.464844 265.261719 287.316406 C 271.226562 291.945312 277.988281 292.957031 285.160156 291.277344 C 293.234375 289.382812 299.308594 284.542969 303.960938 277.824219 C 305.078125 276.210938 306.003906 274.445312 307.125 272.832031 C 308.632812 270.636719 310.722656 269.34375 313.476562 269.605469 C 317.871094 269.992188 320.542969 274.46875 318.753906 278.621094 C 317.289062 282.042969 315.179688 285.121094 312.855469 288.007812 C 305.488281 297.132812 296.226562 303.117188 284.46875 304.839844 C 283.585938 304.96875 282.703125 305.074219 281.820312 305.117188 C 281.003906 305.160156 280.097656 305.117188 279.214844 305.117188 Z M 279.214844 305.117188 " fill-opacity="1" fill-rule="nonzero"/><path fill="#436221" d="M 378.234375 257.613281 C 378.277344 248.769531 380.085938 240.179688 382.347656 231.699219 C 384.460938 223.820312 387.152344 216.160156 390.058594 208.5625 C 390.640625 207.035156 391.480469 205.675781 392.773438 204.644531 C 394.882812 202.988281 397.855469 202.859375 400.136719 204.300781 C 402.355469 205.675781 403.519531 208.539062 402.957031 211.253906 C 402.679688 212.671875 402.074219 214.007812 401.558594 215.363281 C 397.789062 225.371094 394.496094 235.507812 392.558594 246.035156 C 391.523438 251.675781 390.855469 257.355469 391.671875 263.082031 C 391.867188 264.394531 392.191406 265.6875 392.664062 266.933594 C 393.546875 269.257812 395.078125 271.003906 397.316406 272.101562 C 398.21875 272.550781 399.125 272.984375 399.921875 273.605469 C 402.808594 275.886719 403.605469 278.664062 402.03125 281.9375 C 400.609375 284.886719 397.121094 286.113281 393.828125 284.90625 C 389.347656 283.292969 385.664062 280.558594 382.953125 276.621094 C 379.742188 271.949219 378.535156 266.65625 378.191406 261.101562 C 378.191406 259.960938 378.234375 258.796875 378.234375 257.613281 Z M 378.234375 257.613281 " fill-opacity="1" fill-rule="nonzero"/><path fill="#bc392a" d="M 408.429688 414.738281 C 408.835938 411.46875 410.085938 407.917969 412.089844 404.644531 C 416.957031 396.703125 424.042969 391.40625 432.65625 388.222656 C 445.835938 383.335938 459.058594 383.378906 472.238281 388.328125 C 474.734375 389.277344 476.996094 390.675781 479.109375 392.332031 C 480.164062 393.171875 481.046875 394.140625 481.691406 395.324219 C 483.070312 397.863281 482.875 400.425781 481.066406 402.664062 C 479.582031 404.515625 476.761719 405.3125 474.242188 404.582031 C 473.464844 404.34375 472.691406 404.042969 472.085938 403.527344 C 468.320312 400.296875 463.773438 399.027344 459.015625 398.359375 C 451.027344 397.21875 443.25 397.929688 435.800781 401.15625 C 432.246094 402.6875 429.058594 404.796875 426.367188 407.570312 C 424 410.027344 422.296875 412.84375 421.480469 416.183594 C 420.941406 418.378906 419.777344 420.207031 417.667969 421.21875 C 413.316406 423.347656 408.449219 420.226562 408.429688 414.738281 Z M 408.429688 414.738281 " fill-opacity="1" fill-rule="nonzero"/><path fill="#ec8827" d="M 459.769531 334.046875 C 458.800781 347.628906 453.4375 358.667969 440.859375 365.148438 C 430.15625 370.636719 417.796875 368.355469 409.71875 359.765625 C 406.273438 356.109375 404.207031 351.761719 403.410156 346.832031 C 402.742188 342.699219 405.046875 339.339844 408.902344 338.695312 C 411.679688 338.242188 414.628906 339.945312 415.773438 342.742188 C 416.050781 343.410156 416.265625 344.121094 416.394531 344.808594 C 417.816406 352.601562 426.171875 357.035156 434.011719 353.785156 C 440.300781 351.179688 443.769531 346.101562 445.640625 339.792969 C 446.546875 336.757812 446.871094 333.636719 446.136719 330.496094 C 445.898438 329.460938 445.921875 328.429688 446.027344 327.375 C 446.375 323.972656 449.300781 322.164062 451.347656 321.886719 C 454.363281 321.476562 457.269531 323.175781 458.414062 326.019531 C 459.445312 328.601562 459.703125 331.292969 459.769531 334.046875 Z M 459.769531 334.046875 " fill-opacity="1" fill-rule="nonzero"/><path fill="#ec8827" d="M 554.203125 326.988281 C 554.265625 328.773438 553.554688 330.28125 552.523438 331.679688 C 549.960938 335.144531 547.09375 338.371094 544.101562 341.472656 C 538.351562 347.390625 532.496094 353.203125 526.746094 359.144531 C 521.445312 364.632812 516.472656 370.378906 512.660156 377.03125 C 511.496094 379.054688 510.679688 381.25 509.667969 383.359375 C 508.480469 385.789062 506.609375 387.425781 503.808594 387.597656 C 499.265625 387.878906 495.992188 383.488281 497.414062 378.945312 C 498.640625 375.007812 500.621094 371.390625 502.796875 367.902344 C 506.480469 362.050781 510.894531 356.753906 515.632812 351.761719 C 519.25 347.929688 522.976562 344.183594 526.699219 340.4375 C 532.128906 334.972656 537.578125 329.546875 542.335938 323.5 C 544.597656 320.617188 547.699219 319.949219 550.734375 321.390625 C 552.84375 322.359375 554.203125 324.53125 554.203125 326.988281 Z M 554.203125 326.988281 " fill-opacity="1" fill-rule="nonzero"/><path fill="#436221" d="M 408.34375 369.648438 C 408.429688 375.265625 403.667969 378.6875 399.191406 376.621094 C 396.886719 375.566406 395.722656 373.605469 395.292969 371.152344 C 393.570312 361.402344 389.972656 352.320312 385.148438 343.753906 C 379.914062 334.457031 371.859375 328.601562 361.546875 325.867188 C 359.132812 325.222656 356.957031 324.167969 356.074219 321.605469 C 354.480469 316.957031 357.839844 312.609375 362.792969 312.867188 C 364.777344 312.972656 366.714844 313.449219 368.566406 314.136719 C 379.980469 318.3125 389.347656 325.15625 395.65625 335.660156 C 401.578125 345.496094 405.648438 356.128906 408.019531 367.367188 C 408.214844 368.226562 408.277344 369.152344 408.34375 369.648438 Z M 408.34375 369.648438 " fill-opacity="1" fill-rule="nonzero"/><path fill="#bc392a" d="M 439.179688 325.027344 C 439.160156 331.054688 437.351562 336.585938 434.226562 341.6875 C 432.570312 344.378906 429.769531 345.734375 427.230469 345.21875 C 422.921875 344.355469 420.703125 340.160156 422.449219 336.070312 C 422.984375 334.820312 423.695312 333.636719 424.277344 332.390625 C 425.851562 328.964844 426.519531 325.414062 425.636719 321.691406 C 425.289062 320.226562 424.667969 318.871094 423.675781 317.730469 C 421.5 315.191406 418.183594 314.976562 415.816406 317.34375 C 413.402344 319.734375 412.757812 322.746094 413.144531 326.019531 C 413.316406 327.503906 413.597656 328.964844 413.296875 330.453125 C 412.648438 333.488281 410.410156 335.554688 407.394531 335.8125 C 404.679688 336.046875 401.773438 334.324219 400.914062 331.527344 C 397.554688 320.722656 402.3125 308.046875 412.90625 303.804688 C 421.457031 300.382812 430.910156 303.828125 435.84375 312.070312 C 438.148438 316.050781 439.179688 320.378906 439.179688 325.027344 Z M 439.179688 325.027344 " fill-opacity="1" fill-rule="nonzero"/><path fill="#bc392a" d="M 262.914062 193.945312 C 271.957031 194.078125 278.980469 197.757812 283.609375 205.675781 C 284.019531 206.367188 284.46875 207.054688 284.773438 207.785156 C 285.523438 209.617188 286.945312 210.371094 288.820312 210.5 C 292.503906 210.800781 296.207031 211.082031 299.890625 211.445312 C 304.820312 211.960938 309.582031 213.039062 313.867188 215.6875 C 315.738281 216.847656 317.398438 218.226562 318.667969 220.035156 C 321.382812 223.84375 320.304688 228.6875 316.34375 230.34375 C 313.84375 231.378906 311.28125 231.074219 309.496094 229.136719 C 306.265625 225.652344 302.128906 224.964844 297.800781 224.46875 C 293.707031 224.015625 289.59375 224.015625 285.546875 223.304688 C 280.207031 222.378906 276.15625 219.667969 273.617188 214.804688 C 273.121094 213.835938 272.5625 212.910156 272.023438 211.960938 C 269.695312 207.980469 266.058594 206.816406 261.730469 207.164062 C 260.15625 207.292969 258.605469 207.527344 257.054688 207.097656 C 254.125 206.300781 252.253906 204 252.101562 200.984375 C 251.972656 198.382812 253.933594 195.667969 256.601562 194.742188 C 257.097656 194.570312 257.617188 194.441406 258.109375 194.355469 C 259.683594 194.097656 261.296875 193.988281 262.914062 193.945312 Z M 262.914062 193.945312 " fill-opacity="1" fill-rule="nonzero"/><path fill="#bc392a" d="M 539.386719 462.929688 C 539.320312 472.378906 536.671875 480.859375 530.039062 487.855469 C 527.347656 490.699219 524.222656 492.957031 520.84375 494.875 C 518.34375 496.273438 515.867188 497.691406 513.304688 498.984375 C 511.089844 500.125 508.71875 500.683594 506.371094 499.394531 C 502.128906 497.027344 501.742188 491.515625 505.554688 488.457031 C 506.953125 487.339844 508.546875 486.585938 510.097656 485.703125 C 512.035156 484.628906 513.996094 483.59375 515.890625 482.433594 C 522.585938 478.320312 525.816406 472.207031 526.140625 464.460938 C 526.378906 459.078125 525.429688 453.871094 523.621094 448.8125 C 523.105469 447.371094 522.523438 445.949219 522.566406 444.378906 C 522.632812 441.34375 524.417969 438.976562 527.304688 438.113281 C 529.824219 437.359375 532.796875 438.5 534.390625 440.828125 C 535.101562 441.859375 535.53125 443.042969 535.960938 444.207031 C 538.179688 450.277344 539.300781 456.496094 539.386719 462.929688 Z M 539.386719 462.929688 " fill-opacity="1" fill-rule="nonzero"/><path fill="#ec8827" d="M 392.644531 381.785156 C 392.6875 385.425781 392.449219 389.019531 391.738281 392.589844 C 391.222656 395.132812 390.058594 397.21875 387.601562 398.316406 C 385.363281 399.328125 383.167969 399.113281 381.207031 397.628906 C 379.183594 396.101562 378.234375 393.949219 378.644531 391.472656 C 379.375 387.082031 379.699219 382.667969 379.398438 378.257812 C 378.796875 368.894531 376.296875 360.199219 370.246094 352.792969 C 368.199219 350.273438 365.808594 348.144531 363.011719 346.464844 C 360.878906 345.195312 359.089844 343.515625 358.875 340.847656 C 358.464844 335.660156 363.375 332.214844 368.136719 334.367188 C 372.226562 336.21875 375.628906 339.0625 378.644531 342.355469 C 386.851562 351.308594 390.921875 362.050781 392.277344 373.953125 C 392.449219 375.542969 392.578125 377.160156 392.664062 378.75 C 392.6875 379.761719 392.644531 380.773438 392.644531 381.785156 Z M 392.644531 381.785156 " fill-opacity="1" fill-rule="nonzero"/><path fill="#ec8827" d="M 424.449219 240.78125 C 424.472656 229.527344 426.90625 219.625 430.609375 209.960938 C 431.664062 207.226562 432.675781 204.472656 433.410156 201.609375 C 434.53125 197.238281 438.320312 195.175781 442.152344 196.660156 C 444.800781 197.671875 446.546875 200.683594 446.246094 203.65625 C 445.964844 206.582031 444.972656 209.292969 443.917969 212.003906 C 441.207031 218.914062 438.859375 225.929688 438.039062 233.355469 C 437.222656 240.566406 437.523438 247.671875 439.976562 254.558594 C 440.496094 256.042969 441.074219 257.507812 440.96875 259.121094 C 440.730469 262.371094 438.621094 264.847656 435.691406 265.34375 C 432.675781 265.859375 429.726562 264.265625 428.476562 261.273438 C 426.304688 256.066406 425.03125 250.640625 424.667969 245.023438 C 424.535156 243.324219 424.492188 241.621094 424.449219 240.78125 Z M 424.449219 240.78125 " fill-opacity="1" fill-rule="nonzero"/><path fill="#bc392a" d="M 344.144531 301.503906 C 344.101562 306.667969 342.054688 310.996094 338.695312 314.738281 C 337.230469 316.398438 335.636719 317.96875 334.023438 319.453125 C 332.601562 320.765625 332.191406 322.25 332.644531 324.125 C 333.636719 328.148438 335.078125 332.042969 336.304688 336.003906 C 337.511719 339.902344 338.675781 343.773438 339.601562 347.757812 C 340.140625 350.058594 339.945312 352.277344 338.417969 354.171875 C 335.335938 358.003906 329.585938 357.226562 327.453125 352.707031 C 327.238281 352.234375 327.046875 351.738281 326.917969 351.242188 C 325.214844 344.269531 322.867188 337.488281 320.757812 330.644531 C 320.15625 328.6875 319.679688 326.683594 319.378906 324.640625 C 318.667969 319.605469 320.046875 315.234375 323.472656 311.488281 C 324.804688 310.027344 326.25 308.667969 327.628906 307.269531 C 328.402344 306.496094 329.113281 305.679688 329.738281 304.796875 C 330.769531 303.332031 331.160156 301.738281 330.726562 299.996094 C 330.511719 299.132812 330.46875 298.253906 330.492188 297.347656 C 330.578125 294.140625 332.40625 291.773438 335.359375 291.085938 C 338.179688 290.417969 341.257812 291.859375 342.636719 294.59375 C 343.777344 296.789062 344.125 299.132812 344.144531 301.503906 Z M 344.144531 301.503906 " fill-opacity="1" fill-rule="nonzero"/><path fill="#bc392a" d="M 374.230469 380.386719 C 374.230469 384.691406 373.800781 388.007812 373.238281 391.300781 C 372.742188 394.25 373.195312 396.960938 374.683594 399.566406 C 376.46875 402.644531 378.625 405.441406 380.667969 408.347656 C 381.941406 410.15625 383.230469 411.964844 384.375 413.855469 C 386.117188 416.761719 385.988281 419.863281 384.179688 421.992188 C 381.488281 425.15625 376.640625 425.371094 374.1875 421.949219 C 370.09375 416.226562 365.617188 410.734375 362.363281 404.449219 C 359.628906 399.199219 359.304688 393.6875 360.382812 387.984375 C 361.609375 381.484375 361.027344 375.15625 358.746094 368.957031 C 358.101562 367.191406 357.734375 365.386719 358.230469 363.511719 C 358.875 360.972656 361.050781 359.101562 363.71875 358.734375 C 366.089844 358.410156 368.847656 359.832031 370.09375 362.09375 C 371.238281 364.160156 371.816406 366.417969 372.464844 368.679688 C 373.671875 372.832031 374.1875 377.050781 374.230469 380.386719 Z M 374.230469 380.386719 " fill-opacity="1" fill-rule="nonzero"/><path fill="#ec8827" d="M 503.25 439.363281 C 503.164062 449.089844 501.441406 458.496094 497.628906 467.472656 C 497.113281 468.699219 496.445312 469.839844 495.519531 470.808594 C 493.128906 473.261719 490.390625 473.476562 487.679688 472.101562 C 485.03125 470.746094 483.84375 467.515625 484.707031 464.503906 C 484.988281 463.492188 485.4375 462.542969 485.828125 461.574219 C 490.78125 448.617188 491.707031 435.53125 487.226562 422.230469 C 486.363281 419.710938 485.136719 417.34375 484.019531 414.933594 C 482.726562 412.199219 482.789062 409.507812 484.835938 407.140625 C 487.679688 403.847656 492.804688 404.386719 495.238281 408.261719 C 497.347656 411.660156 498.855469 415.363281 500.082031 419.152344 C 502.238281 425.714844 503.3125 432.453125 503.25 439.363281 Z M 503.25 439.363281 " fill-opacity="1" fill-rule="nonzero"/><path fill="#436221" d="M 296.054688 335.640625 C 296.164062 338.675781 294.722656 340.761719 291.792969 341.925781 C 289.1875 342.957031 286.148438 341.839844 284.40625 339.492188 C 283.78125 338.652344 283.371094 337.683594 282.960938 336.714844 C 281.757812 333.808594 280.59375 330.902344 279.085938 328.128906 C 277.730469 325.671875 276.09375 323.457031 273.746094 321.820312 C 269.78125 319.085938 266.488281 319.429688 263.191406 322.917969 C 261.277344 324.964844 259.875 327.375 258.519531 329.785156 C 257.851562 330.988281 257.097656 332.109375 255.980469 332.96875 C 253.546875 334.800781 250.59375 334.863281 248.117188 333.121094 C 245.984375 331.613281 244.78125 328.449219 245.921875 325.890625 C 248.9375 319.042969 252.921875 312.84375 259.703125 309.121094 C 265.605469 305.871094 271.699219 306.128906 277.707031 308.929688 C 283.003906 311.382812 286.859375 315.40625 289.832031 320.355469 C 292.203125 324.316406 293.902344 328.578125 295.605469 332.839844 C 295.949219 333.765625 296.054688 334.734375 296.054688 335.640625 Z M 296.054688 335.640625 " fill-opacity="1" fill-rule="nonzero"/><path fill="#436221" d="M 508.933594 335.984375 C 499.285156 335.683594 491.621094 331.871094 486.625 323.328125 C 485.65625 321.691406 485.117188 319.925781 485.460938 318.011719 C 485.914062 315.515625 487.355469 313.75 489.789062 312.953125 C 492.222656 312.15625 494.398438 312.84375 496.292969 314.460938 C 496.917969 314.976562 497.390625 315.644531 497.777344 316.355469 C 501.050781 322.378906 507.191406 323.476562 512.035156 322.445312 C 519.808594 320.765625 525.410156 316.03125 529.757812 309.617188 C 530.46875 308.539062 531.117188 307.421875 532.085938 306.539062 C 534.347656 304.472656 537.296875 304.0625 539.773438 305.503906 C 542.226562 306.925781 543.457031 309.941406 542.722656 312.824219 C 542.53125 313.554688 542.269531 314.308594 541.882812 314.953125 C 535.488281 325.652344 526.507812 332.882812 514.125 335.488281 C 512.421875 335.832031 510.679688 335.960938 508.933594 335.984375 Z M 508.933594 335.984375 " fill-opacity="1" fill-rule="nonzero"/><path fill="#bc392a" d="M 452.53125 482.734375 C 448.460938 482.777344 445.125 482.367188 441.871094 481.292969 C 439.933594 480.644531 438.253906 479.65625 437.222656 477.847656 C 435.90625 475.566406 435.90625 473.199219 437.371094 471.003906 C 438.859375 468.785156 441.074219 468.011719 443.660156 468.203125 C 444.21875 468.246094 444.757812 468.421875 445.320312 468.570312 C 456.023438 471.628906 465.238281 467.0625 469.332031 456.710938 C 470.644531 453.375 471.375 449.953125 471.355469 446.335938 C 471.355469 443.839844 471.9375 441.449219 474.175781 439.988281 C 478.332031 437.230469 483.457031 439.511719 484.320312 444.464844 C 484.792969 447.113281 484.511719 449.757812 484.082031 452.40625 C 482.984375 459.164062 480.59375 465.386719 476.328125 470.789062 C 470.105469 478.644531 461.792969 482.367188 452.53125 482.734375 Z M 452.53125 482.734375 " fill-opacity="1" fill-rule="nonzero"/><path fill="#436221" d="M 467.113281 443.410156 C 466.640625 452.019531 463.019531 459.273438 456.367188 464.996094 C 453.652344 467.34375 450.378906 467.515625 447.902344 465.75 C 445.167969 463.792969 444.371094 460.5625 445.855469 457.527344 C 446.417969 456.386719 447.320312 455.527344 448.226562 454.667969 C 451.175781 451.867188 453.136719 448.511719 453.761719 444.464844 C 453.976562 443.085938 453.910156 441.730469 453.328125 440.4375 C 452.769531 439.210938 451.886719 438.867188 450.679688 439.449219 C 448.894531 440.289062 447.839844 441.773438 447.171875 443.558594 C 446.738281 444.679688 446.4375 445.863281 445.898438 446.9375 C 443.875 451.007812 438.859375 452.082031 435.648438 449.113281 C 433.863281 447.457031 433.171875 445.304688 433.667969 442.957031 C 434.722656 437.855469 436.941406 433.359375 441.097656 430.019531 C 445.964844 426.105469 451.390625 424.617188 457.355469 427.074219 C 463.300781 429.527344 466.078125 434.433594 466.917969 440.566406 C 467.027344 441.429688 467.027344 442.3125 467.113281 443.410156 Z M 467.113281 443.410156 " fill-opacity="1" fill-rule="nonzero"/><path fill="#bc392a" d="M 473.660156 235.640625 C 482.898438 235.8125 491.339844 237.855469 498.75 243.300781 C 500.644531 244.699219 502.34375 246.292969 503.703125 248.230469 C 506.027344 251.546875 505.46875 255.546875 502.386719 257.765625 C 499.953125 259.507812 496.097656 259.53125 494.226562 257.035156 C 486.472656 246.808594 466.058594 246.808594 455.332031 253.785156 C 454.34375 254.429688 453.308594 254.945312 452.167969 255.246094 C 449.152344 256 446.394531 254.945312 444.929688 252.492188 C 443.402344 249.929688 443.8125 246.679688 445.964844 244.484375 C 447.214844 243.195312 448.765625 242.3125 450.316406 241.449219 C 457.636719 237.402344 465.582031 235.832031 473.660156 235.640625 Z M 473.660156 235.640625 " fill-opacity="1" fill-rule="nonzero"/><path fill="#bc392a" d="M 444.21875 536.242188 C 444.199219 532.453125 444.542969 528.6875 445.1875 524.941406 C 445.769531 521.542969 447.710938 519.347656 450.617188 518.722656 C 454.75 517.816406 458.628906 521.347656 458.28125 525.78125 C 458.132812 527.78125 457.746094 529.761719 457.59375 531.785156 C 456.625 544.851562 459.8125 556.691406 468.125 566.976562 C 469.007812 568.074219 470.042969 569.042969 470.6875 570.316406 C 472.214844 573.304688 471.679688 576.554688 469.351562 578.449219 C 466.855469 580.472656 463.320312 580.429688 460.78125 578.300781 C 458.605469 576.46875 456.90625 574.210938 455.269531 571.90625 C 448.097656 561.660156 444.261719 549.242188 444.21875 536.242188 Z M 444.21875 536.242188 " fill-opacity="1" fill-rule="nonzero"/><path fill="#436221" d="M 340.03125 261.832031 C 339.835938 271.132812 337.425781 279.785156 332.300781 287.621094 C 330.988281 289.621094 329.308594 291.148438 326.832031 291.429688 C 321.726562 292.011719 318.128906 287.039062 320.242188 282.28125 C 320.734375 281.140625 321.511719 280.128906 322.113281 279.050781 C 326.875 270.484375 328.273438 261.511719 325.238281 252.0625 C 324.222656 248.898438 322.632812 245.992188 320.371094 243.515625 C 319.636719 242.699219 319.035156 241.816406 318.582031 240.804688 C 317.398438 238.113281 317.871094 235.421875 319.894531 233.464844 C 321.769531 231.65625 324.699219 231.226562 327.21875 232.390625 C 328.726562 233.078125 329.824219 234.261719 330.878906 235.488281 C 335.335938 240.738281 337.964844 246.851562 339.277344 253.566406 C 339.792969 256.28125 340.054688 259.035156 340.03125 261.832031 Z M 340.03125 261.832031 " fill-opacity="1" fill-rule="nonzero"/><path fill="#436221" d="M 463 537.125 C 463.019531 530.992188 464.292969 525.675781 465.863281 520.421875 C 467.199219 515.902344 468.578125 511.402344 469.957031 506.90625 C 470.96875 503.589844 473.230469 501.609375 476.136719 501.417969 C 480.183594 501.15625 483.371094 504.539062 482.960938 508.671875 C 482.769531 510.648438 482.101562 512.523438 481.542969 514.394531 C 480.011719 519.648438 478.09375 524.792969 476.976562 530.171875 C 476.457031 532.625 476.113281 535.101562 476.222656 537.597656 C 476.351562 540.976562 477.363281 544.078125 479.152344 546.941406 C 480.054688 548.382812 481.023438 549.757812 481.863281 551.222656 C 483.671875 554.367188 483.414062 557.441406 481.238281 559.703125 C 478.546875 562.480469 474.15625 562.480469 471.65625 559.316406 C 467.824219 554.453125 464.699219 549.136719 463.558594 542.894531 C 463.171875 540.785156 462.976562 538.675781 463 537.125 Z M 463 537.125 " fill-opacity="1" fill-rule="nonzero"/><path fill="#ec8827" d="M 455.007812 404.042969 C 465.046875 404.34375 473.53125 407.851562 479.601562 416.160156 C 481.949219 419.34375 483.5 422.941406 484.191406 426.835938 C 484.683594 429.570312 484.320312 432.175781 481.820312 433.980469 C 478.007812 436.757812 473.445312 434.90625 471.851562 431.011719 C 471.570312 430.34375 471.375 429.632812 471.183594 428.945312 C 469.179688 422.058594 463.859375 417.796875 456.667969 417.324219 C 451.734375 417 447.148438 418.097656 442.929688 420.660156 C 442.003906 421.21875 441.054688 421.777344 440.019531 422.101562 C 436.683594 423.132812 433.453125 421.777344 431.964844 418.765625 C 430.609375 415.988281 431.558594 412.457031 434.335938 410.5625 C 438.835938 407.441406 443.769531 405.375 449.214844 404.539062 C 451.132812 404.257812 453.050781 404.042969 455.007812 404.042969 Z M 455.007812 404.042969 " fill-opacity="1" fill-rule="nonzero"/><path fill="#436221" d="M 280.660156 284.972656 C 277.964844 284.972656 275.359375 284.585938 272.820312 283.703125 C 271.226562 283.140625 269.867188 282.238281 268.855469 280.839844 C 267.261719 278.664062 267.132812 276.039062 268.535156 273.691406 C 269.847656 271.496094 272.605469 270.3125 275.339844 270.808594 C 276.804688 271.066406 278.183594 271.671875 279.6875 271.757812 C 282.660156 271.929688 285.375 271.304688 287.679688 269.34375 C 289.59375 267.730469 290.15625 265.105469 289.035156 263.253906 C 288.753906 262.78125 288.519531 262.394531 287.851562 262.910156 C 285.160156 265.019531 282.359375 265.210938 279.96875 263.554688 C 277.449219 261.789062 276.4375 258.753906 277.320312 255.632812 C 278.355469 252.039062 282.207031 249.199219 286.496094 248.875 C 293.429688 248.359375 299.78125 252.945312 302 260.070312 C 304.5 268.074219 301.203125 276.492188 293.707031 281.269531 C 289.746094 283.808594 285.351562 284.972656 280.660156 284.972656 Z M 280.660156 284.972656 " fill-opacity="1" fill-rule="nonzero"/><path fill="#bc392a" d="M 493.105469 303.203125 C 493.128906 304.96875 493.085938 306.734375 492.351562 308.410156 C 491.039062 311.402344 488.324219 313.015625 485.417969 312.5 C 482.273438 311.941406 480.054688 309.359375 479.925781 306.066406 C 479.863281 304.429688 480.054688 302.773438 479.773438 301.113281 C 479.730469 300.792969 479.6875 300.46875 479.625 300.167969 C 478.007812 291.6875 470.664062 288.15625 462.222656 291.773438 C 460.800781 292.375 459.597656 293.34375 458.261719 294.078125 C 455.785156 295.453125 453.265625 295.648438 450.832031 294.011719 C 447.148438 291.535156 447.148438 286.304688 450.808594 283.359375 C 453.480469 281.203125 456.453125 279.65625 459.746094 278.664062 C 466.207031 276.726562 472.625 276.640625 478.871094 279.417969 C 486.644531 282.882812 490.78125 289.191406 492.503906 297.304688 C 492.933594 299.261719 493.128906 301.222656 493.105469 303.203125 Z M 493.105469 303.203125 " fill-opacity="1" fill-rule="nonzero"/><path fill="#ec8827" d="M 454.429688 501.15625 C 446.503906 500.898438 438.6875 499.867188 431.300781 496.789062 C 424.816406 494.097656 419.800781 489.859375 417.496094 482.96875 C 416.289062 479.355469 416.050781 475.628906 416.65625 471.886719 C 417.472656 466.761719 423.007812 464.375 427.035156 467.410156 C 428.824219 468.765625 429.554688 470.679688 429.664062 472.875 C 429.726562 474.210938 429.46875 475.523438 429.621094 476.859375 C 429.878906 479.484375 431.105469 481.484375 433.257812 482.96875 C 436.574219 485.230469 440.367188 486.15625 444.199219 486.910156 C 448.269531 487.707031 452.402344 488.179688 456.558594 488.113281 C 457.527344 488.09375 458.476562 488.242188 459.425781 488.523438 C 462.871094 489.535156 464.355469 492.183594 464.207031 495.21875 C 464.054688 498.273438 461.363281 500.855469 458.175781 501.15625 C 456.925781 501.265625 455.675781 501.15625 454.429688 501.15625 Z M 454.429688 501.15625 " fill-opacity="1" fill-rule="nonzero"/><path fill="#bc392a" d="M 213.078125 267.214844 C 213.035156 260.15625 214.933594 253.546875 217.839844 247.175781 C 220.25 241.878906 223.246094 236.929688 226.539062 232.152344 C 227.164062 231.246094 227.894531 230.472656 228.800781 229.828125 C 231.429688 227.953125 234.378906 227.953125 236.746094 229.847656 C 239.007812 231.65625 239.742188 234.949219 238.449219 237.75 C 237.996094 238.71875 237.371094 239.640625 236.769531 240.546875 C 233.410156 245.625 230.308594 250.855469 228.242188 256.601562 C 226.195312 262.265625 225.550781 268.011719 227.097656 273.910156 C 227.703125 276.210938 227.59375 278.492188 226.085938 280.472656 C 224.535156 282.496094 222.449219 283.378906 219.929688 282.949219 C 217.324219 282.496094 215.578125 280.859375 214.757812 278.40625 C 213.789062 275.542969 213.296875 272.550781 213.125 269.539062 C 213.035156 268.742188 213.078125 267.96875 213.078125 267.214844 Z M 213.078125 267.214844 " fill-opacity="1" fill-rule="nonzero"/><path fill="#436221" d="M 337.878906 173.671875 C 337.855469 168.074219 342.894531 164.675781 347.375 167.085938 C 349.464844 168.203125 350.628906 170.054688 350.929688 172.402344 C 351.617188 177.867188 352.222656 183.355469 353.0625 188.804688 C 353.792969 193.582031 354.609375 198.339844 355.882812 203.007812 C 356.636719 205.765625 357.648438 208.433594 359.027344 210.949219 C 360.316406 213.296875 360.898438 215.792969 359.304688 218.289062 C 356.957031 221.949219 352.21875 222.445312 349.121094 219.386719 C 347.871094 218.140625 347.050781 216.613281 346.296875 215.0625 C 344.210938 210.800781 342.980469 206.257812 341.992188 201.632812 C 340.074219 192.632812 338.933594 183.53125 337.941406 174.402344 C 337.878906 174.101562 337.878906 173.777344 337.878906 173.671875 Z M 337.878906 173.671875 " fill-opacity="1" fill-rule="nonzero"/><path fill="#ec8827" d="M 499.09375 497.757812 C 498.898438 501.804688 499.632812 505.765625 500.40625 509.722656 C 501.441406 514.996094 502.109375 520.292969 501.03125 525.652344 C 499.933594 531.035156 497.390625 535.703125 493.839844 539.816406 C 491.640625 542.355469 488.582031 543.109375 486.019531 541.96875 C 482.554688 540.4375 481.132812 536.824219 482.640625 533.335938 C 482.984375 532.5625 483.414062 531.828125 483.976562 531.183594 C 488.195312 526.277344 489.1875 520.660156 487.914062 514.460938 C 487.074219 510.433594 486.300781 506.410156 485.957031 502.320312 C 485.71875 499.457031 485.65625 496.59375 486.105469 493.773438 C 486.558594 490.976562 488.046875 488.910156 490.867188 488.070312 C 493.363281 487.316406 495.582031 487.941406 497.328125 489.902344 C 498.511719 491.234375 499.136719 492.828125 499.113281 494.65625 C 499.070312 495.667969 499.09375 496.722656 499.09375 497.757812 Z M 499.09375 497.757812 " fill-opacity="1" fill-rule="nonzero"/><path fill="#ec8827" d="M 296.875 361.082031 C 292.910156 360.757812 288.929688 360.433594 285.007812 359.679688 C 278.761719 358.476562 273.980469 355.203125 270.644531 349.78125 C 268.296875 345.96875 265.886719 342.289062 262.675781 339.0625 C 259.164062 335.511719 260.824219 329.675781 265.453125 328.386719 C 267.585938 327.78125 269.609375 328.214844 271.398438 329.570312 C 274.953125 332.28125 277.472656 335.855469 279.796875 339.597656 C 280.3125 340.417969 280.851562 341.214844 281.304688 342.074219 C 282.941406 345.175781 285.570312 346.660156 288.972656 347.023438 C 291.8125 347.328125 294.65625 347.671875 297.5 347.972656 C 298.878906 348.121094 300.167969 348.511719 301.398438 349.175781 C 304.066406 350.664062 304.949219 353.546875 304.433594 355.957031 C 303.851562 358.777344 301.417969 360.820312 298.554688 361.058594 C 297.996094 361.101562 297.433594 361.082031 296.875 361.082031 Z M 296.875 361.082031 " fill-opacity="1" fill-rule="nonzero"/><path fill="#bc392a" d="M 269.652344 357.421875 C 269.675781 360.542969 268.125 362.910156 265.863281 363.835938 C 263.191406 364.933594 260.800781 364.308594 258.714844 362.4375 C 258.152344 361.941406 257.660156 361.316406 257.269531 360.671875 C 254.835938 356.472656 251.21875 353.632812 246.957031 351.503906 C 243.402344 349.714844 239.804688 347.992188 236.425781 345.839844 C 233.453125 343.949219 230.738281 341.75 228.5625 338.933594 C 227.507812 337.554688 226.753906 336.070312 226.667969 334.324219 C 226.539062 331.464844 227.917969 329.203125 230.503906 328.0625 C 232.914062 326.988281 235.992188 327.351562 237.800781 329.613281 C 241.378906 334.089844 246.308594 336.390625 251.175781 338.890625 C 255.503906 341.085938 259.703125 343.429688 263.171875 346.917969 C 265.21875 348.984375 266.941406 351.308594 268.449219 353.804688 C 269.265625 355.117188 269.652344 356.582031 269.652344 357.421875 Z M 269.652344 357.421875 " fill-opacity="1" fill-rule="nonzero"/><path fill="#436221" d="M 496.894531 338.394531 C 499.351562 338.4375 502.257812 338.996094 504.929688 340.460938 C 508.332031 342.3125 509.539062 346.164062 507.816406 349.4375 C 506.566406 351.804688 503.703125 353.179688 500.964844 352.6875 C 500.0625 352.515625 499.179688 352.191406 498.296875 351.933594 C 495.085938 350.984375 491.769531 352.253906 490.027344 355.097656 C 489.1875 356.472656 489.636719 357.699219 491.210938 358.152344 C 493.472656 358.796875 495.386719 359.789062 496.25 362.199219 C 497.671875 366.179688 495.410156 370.25 491.210938 370.917969 C 487.183594 371.5625 483.84375 370.011719 481.003906 367.324219 C 475.597656 362.179688 474.84375 353.65625 479.152344 347.585938 C 483.5 341.515625 489.316406 338.394531 496.894531 338.394531 Z M 496.894531 338.394531 " fill-opacity="1" fill-rule="nonzero"/><path fill="#bc392a" d="M 417.625 446.765625 C 417.710938 440.308594 418.9375 434.175781 420.984375 428.191406 C 422.40625 424.039062 426.238281 422.207031 429.984375 423.78125 C 432.828125 424.964844 434.398438 428.191406 433.625 431.507812 C 432.957031 434.328125 431.988281 437.058594 431.492188 439.921875 C 430.890625 443.386719 430.523438 446.851562 431.125 450.363281 C 431.449219 452.191406 432.183594 453.570312 434.097656 454.363281 C 439.09375 456.453125 439.179688 461.640625 436.960938 464.308594 C 435.28125 466.355469 433.066406 467.128906 430.480469 466.699219 C 425.570312 465.859375 422.210938 462.953125 420.035156 458.582031 C 418.183594 454.839844 417.644531 450.792969 417.625 446.765625 Z M 417.625 446.765625 " fill-opacity="1" fill-rule="nonzero"/><path fill="#436221" d="M 484.320312 201.265625 C 488.066406 201.371094 492.027344 203.160156 495.171875 206.582031 C 497.953125 209.59375 497.953125 213.621094 495.28125 216.246094 C 492.910156 218.59375 489.273438 218.636719 486.472656 216.398438 C 485.847656 215.902344 485.265625 215.296875 484.597656 214.890625 C 483.4375 214.15625 482.574219 214.460938 482.164062 215.773438 C 481.433594 218.03125 481.886719 220.140625 483.070312 222.144531 C 483.585938 223.003906 484.210938 223.800781 484.683594 224.683594 C 486.320312 227.71875 485.589844 231.378906 482.960938 233.25 C 480.207031 235.230469 476.523438 234.949219 474.21875 232.257812 C 468.878906 226.019531 467.089844 218.894531 469.867188 210.992188 C 472 204.945312 477.34375 201.265625 484.320312 201.265625 Z M 484.320312 201.265625 " fill-opacity="1" fill-rule="nonzero"/><path fill="#436221" d="M 337.921875 323.605469 C 337.878906 319.734375 340.269531 316.847656 343.605469 316.417969 C 346.902344 315.988281 350.023438 318.140625 350.800781 321.671875 C 351.746094 325.953125 352.457031 330.28125 353.296875 334.585938 C 353.988281 338.09375 354.675781 341.601562 355.730469 345.046875 C 356.226562 346.679688 356.914062 348.164062 358.121094 349.457031 C 360.597656 352.105469 360.792969 355.613281 358.722656 358.109375 C 356.59375 360.691406 352.929688 361.210938 349.851562 359.359375 C 347.398438 357.894531 345.867188 355.65625 344.703125 353.117188 C 343.023438 349.4375 342.054688 345.519531 341.257812 341.578125 C 340.160156 336.175781 339.171875 330.753906 338.136719 325.351562 C 338.007812 324.640625 337.964844 323.972656 337.921875 323.605469 Z M 337.921875 323.605469 " fill-opacity="1" fill-rule="nonzero"/><path fill="#ec8827" d="M 222.210938 327.480469 C 218.550781 327.503906 215.75 325.265625 215.277344 322.101562 C 214.78125 318.785156 216.742188 315.773438 220.121094 314.71875 C 221.628906 314.246094 223.160156 313.941406 224.644531 313.425781 C 230.460938 311.445312 235.414062 308.21875 239.375 303.480469 C 240.234375 302.449219 240.859375 301.285156 241.527344 300.125 C 243.335938 296.960938 245.964844 295.605469 248.957031 296.207031 C 252.554688 296.9375 254.773438 300.273438 253.953125 303.890625 C 253.285156 306.839844 251.628906 309.292969 249.753906 311.554688 C 242.929688 319.839844 234.140625 324.984375 223.695312 327.332031 C 223.460938 327.375 223.222656 327.417969 222.984375 327.4375 C 222.664062 327.460938 222.339844 327.480469 222.210938 327.480469 Z M 222.210938 327.480469 " fill-opacity="1" fill-rule="nonzero"/><path fill="#ec8827" d="M 520.84375 452.210938 C 520.390625 462.738281 516.515625 472.726562 508.828125 481.183594 C 506.886719 483.316406 504.542969 484.433594 501.589844 483.679688 C 497.457031 482.605469 495.625 477.828125 497.84375 474.082031 C 498.511719 472.960938 499.4375 472.058594 500.234375 471.046875 C 505.339844 464.632812 508.007812 457.398438 507.535156 449.113281 C 507.46875 448.101562 507.535156 447.113281 507.75 446.121094 C 508.417969 442.9375 510.808594 441.234375 513.566406 441.042969 C 516.621094 440.828125 519.207031 442.699219 520.15625 445.667969 C 520.757812 447.5 520.777344 449.4375 520.84375 452.210938 Z M 520.84375 452.210938 " fill-opacity="1" fill-rule="nonzero"/><path fill="#436221" d="M 530.234375 431.507812 C 530.234375 434.863281 527.84375 437.492188 524.527344 437.898438 C 523.296875 438.050781 522.113281 437.878906 520.953125 437.554688 C 512.550781 435.121094 506.671875 429.847656 503.25 421.84375 C 501.503906 417.753906 500.363281 413.46875 499.4375 409.144531 C 498.554688 405.054688 500.835938 401.566406 504.648438 400.855469 C 507.640625 400.296875 510.742188 402.105469 511.863281 405.226562 C 512.464844 406.882812 512.832031 408.625 513.304688 410.328125 C 513.910156 412.542969 514.554688 414.738281 515.460938 416.847656 C 517.160156 420.832031 520.046875 423.476562 524.203125 424.75 C 525.367188 425.09375 526.464844 425.585938 527.453125 426.277344 C 529.328125 427.589844 530.339844 429.3125 530.234375 431.507812 Z M 530.234375 431.507812 " fill-opacity="1" fill-rule="nonzero"/><path fill="#436221" d="M 244.5 282.109375 C 244.328125 288.585938 241.355469 293.753906 236.8125 298.101562 C 232.097656 302.621094 226.476562 305.632812 220.25 307.464844 C 216.007812 308.691406 212.304688 306.644531 211.398438 302.707031 C 210.734375 299.757812 212.347656 296.679688 215.339844 295.347656 C 216.441406 294.851562 217.601562 294.507812 218.742188 294.078125 C 222.167969 292.761719 225.289062 290.976562 227.917969 288.371094 C 229.964844 286.347656 231.257812 284.046875 231.429688 281.054688 C 231.578125 278.191406 232.675781 275.695312 235.691406 274.640625 C 239.527344 273.304688 243.316406 275.394531 244.261719 279.332031 C 244.457031 280.238281 244.523438 281.160156 244.5 282.109375 Z M 244.5 282.109375 " fill-opacity="1" fill-rule="nonzero"/><path fill="#ec8827" d="M 437.824219 600.769531 C 434.335938 600.8125 430.910156 600.40625 427.550781 599.480469 C 424.257812 598.574219 422.167969 596.273438 421.953125 593.410156 C 421.609375 588.847656 425.636719 585.53125 430.371094 586.671875 C 434.832031 587.726562 439.289062 587.941406 443.769531 587.015625 C 446.976562 586.351562 449.90625 585.078125 452.46875 583.011719 C 452.964844 582.605469 453.503906 582.238281 454.039062 581.894531 C 457.355469 579.894531 461.0625 580.496094 463.128906 583.335938 C 465.132812 586.089844 464.527344 589.988281 461.707031 592.460938 C 457.722656 595.929688 453.136719 598.273438 447.988281 599.566406 C 444.652344 600.363281 441.269531 600.8125 437.824219 600.769531 Z M 437.824219 600.769531 " fill-opacity="1" fill-rule="nonzero"/><path fill="#436221" d="M 300.019531 199.886719 C 300.019531 202.964844 298.425781 205.269531 295.667969 206.195312 C 293.042969 207.078125 290.046875 206.042969 288.304688 203.65625 C 287.742188 202.902344 287.355469 202.0625 287.03125 201.199219 C 285.742188 197.800781 283.4375 195.238281 280.421875 193.257812 C 277.558594 191.386719 274.433594 190.117188 271.160156 189.234375 C 270.234375 188.976562 269.289062 188.761719 268.382812 188.394531 C 265.109375 187.082031 263.410156 183.832031 264.269531 180.601562 C 265.132812 177.375 268.210938 175.414062 271.722656 175.886719 C 274.003906 176.210938 276.199219 176.898438 278.355469 177.675781 C 284.945312 180.0625 290.800781 183.53125 295.214844 189.125 C 297.046875 191.449219 298.425781 194.03125 299.457031 196.808594 C 299.847656 197.800781 300.019531 198.832031 300.019531 199.886719 Z M 300.019531 199.886719 " fill-opacity="1" fill-rule="nonzero"/><path fill="#ec8827" d="M 256.386719 235.875 C 256.429688 237.039062 256.195312 238.136719 255.632812 239.148438 C 251.691406 246.488281 251.414062 254.386719 252.082031 262.4375 C 252.1875 263.683594 252.339844 264.933594 252.101562 266.160156 C 251.476562 269.539062 248.914062 271.800781 245.707031 271.820312 C 242.5625 271.84375 239.675781 269.539062 239.265625 266.203125 C 238.082031 256.515625 238.148438 246.894531 241.871094 237.664062 C 242.800781 235.359375 243.660156 233.011719 245.578125 231.226562 C 247.710938 229.226562 250.121094 228.816406 252.707031 229.976562 C 255.203125 231.074219 256.34375 233.164062 256.386719 235.875 Z M 256.386719 235.875 " fill-opacity="1" fill-rule="nonzero"/><path fill="#bc392a" d="M 527.777344 296.273438 C 527.476562 303.871094 523.621094 309.574219 516.601562 313.210938 C 513.972656 314.589844 511.175781 315.449219 508.265625 315.988281 C 503.960938 316.761719 500.449219 314.265625 499.976562 310.15625 C 499.675781 307.570312 501.417969 304.730469 504.066406 303.65625 C 504.929688 303.308594 505.832031 303.09375 506.714844 302.859375 C 507.964844 302.535156 509.191406 302.167969 510.355469 301.589844 C 513.78125 299.910156 514.921875 297.714844 514.339844 293.96875 C 514.125 292.613281 513.738281 291.300781 513.78125 289.902344 C 513.910156 286.21875 515.652344 284.066406 519.035156 283.3125 C 522.242188 282.605469 525.34375 284.628906 526.441406 287.921875 C 527.347656 290.480469 527.714844 293.152344 527.777344 296.273438 Z M 527.777344 296.273438 " fill-opacity="1" fill-rule="nonzero"/><path fill="#436221" d="M 439.847656 547.84375 C 439.914062 551.351562 437.242188 554.105469 433.839844 554.386719 C 432.613281 554.496094 431.429688 554.277344 430.242188 554 C 420.941406 551.804688 412.628906 547.671875 405.285156 541.558594 C 403.496094 540.074219 402.160156 538.285156 402.011719 535.875 C 401.710938 530.925781 406.878906 527.609375 411.398438 529.828125 C 412.347656 530.300781 413.144531 530.96875 413.964844 531.636719 C 419.625 536.285156 426.023438 539.46875 433.152344 541.148438 C 434.25 541.40625 435.324219 541.730469 436.316406 542.289062 C 438.640625 543.582031 439.976562 545.433594 439.847656 547.84375 Z M 439.847656 547.84375 " fill-opacity="1" fill-rule="nonzero"/><path fill="#ec8827" d="M 317.828125 201.824219 C 318 204.191406 317.679688 206.472656 316.148438 208.347656 C 314.492188 210.347656 312.25 211.058594 309.753906 210.433594 C 307.191406 209.789062 305.660156 208.003906 304.972656 205.484375 C 304.585938 204.019531 304.757812 202.511719 304.605469 201.050781 C 303.9375 194.164062 301.527344 187.855469 298.167969 181.851562 C 297.113281 179.976562 296.445312 178.039062 296.9375 175.867188 C 298.082031 171.023438 303.832031 169.257812 307.511719 172.59375 C 308.460938 173.457031 309.128906 174.488281 309.730469 175.585938 C 314.273438 183.722656 317.332031 192.375 317.828125 201.824219 Z M 317.828125 201.824219 " fill-opacity="1" fill-rule="nonzero"/><path fill="#bc392a" d="M 370.828125 194.3125 C 370.828125 196.722656 370.398438 199.371094 367.769531 200.984375 C 363.765625 203.4375 358.898438 201.285156 357.949219 196.636719 C 357.5625 194.742188 357.433594 192.804688 357.238281 190.890625 C 356.550781 184.605469 355.816406 178.34375 354.566406 172.144531 C 354.074219 169.734375 354.308594 167.449219 355.96875 165.535156 C 357.539062 163.726562 359.5625 162.953125 361.933594 163.40625 C 364.539062 163.898438 366.242188 165.535156 367.058594 168.011719 C 367.789062 170.183594 368.09375 172.488281 368.4375 174.746094 C 369.46875 181.097656 370.179688 187.511719 370.828125 194.3125 Z M 370.828125 194.3125 " fill-opacity="1" fill-rule="nonzero"/><path fill="#bc392a" d="M 433.042969 534.066406 C 430.933594 533.960938 428.476562 533.53125 426.066406 532.882812 C 419.519531 531.121094 413.402344 528.386719 407.804688 524.574219 C 406.898438 523.953125 406.082031 523.261719 405.390625 522.402344 C 403.347656 519.796875 403.171875 517.085938 405.199219 514.289062 C 407.050781 511.746094 410.558594 511.144531 413.488281 512.652344 C 414.199219 513.019531 414.867188 513.46875 415.554688 513.898438 C 421.21875 517.601562 427.335938 520.121094 434.097656 521.023438 C 438.578125 521.605469 441.183594 524.984375 440.386719 528.96875 C 439.761719 532.066406 436.960938 534.132812 433.042969 534.066406 Z M 433.042969 534.066406 " fill-opacity="1" fill-rule="nonzero"/><path fill="#ec8827" d="M 294.785156 315.773438 C 294.914062 309.875 297.84375 305.332031 302.410156 301.71875 C 305.726562 299.089844 309.453125 297.175781 313.347656 295.648438 C 317.914062 293.859375 321.296875 296.035156 322.457031 299.542969 C 323.449219 302.535156 322.027344 305.679688 319.097656 307.3125 C 317.097656 308.433594 315.027344 309.402344 312.984375 310.476562 C 311.667969 311.1875 310.464844 312.050781 309.40625 313.125 C 308.222656 314.308594 307.792969 315.621094 308.265625 317.300781 C 308.871094 319.496094 308.699219 321.628906 307.277344 323.5 C 304.367188 327.351562 298.75 326.898438 296.402344 322.636719 C 295.238281 320.550781 294.851562 318.246094 294.785156 315.773438 Z M 294.785156 315.773438 " fill-opacity="1" fill-rule="nonzero"/><path fill="#bc392a" d="M 449.300781 221.195312 C 449.390625 215.902344 449.691406 210.648438 451.757812 205.65625 C 452.382812 204.128906 453.113281 202.664062 454.363281 201.480469 C 456.625 199.347656 459.640625 198.917969 462.160156 200.382812 C 464.613281 201.804688 465.820312 204.796875 465.109375 207.699219 C 465.023438 208.046875 464.9375 208.410156 464.785156 208.734375 C 462.136719 214.09375 462.417969 219.820312 462.699219 225.542969 C 462.761719 226.941406 463 228.34375 463.019531 229.761719 C 463.042969 233.464844 460.523438 236.285156 457.035156 236.609375 C 453.652344 236.910156 450.722656 234.542969 450.054688 230.925781 C 449.925781 230.300781 449.863281 229.65625 449.796875 229.007812 C 449.496094 226.425781 449.28125 223.820312 449.300781 221.195312 Z M 449.300781 221.195312 " fill-opacity="1" fill-rule="nonzero"/><path fill="#436221" d="M 254.191406 212.265625 C 259.984375 212.328125 264.398438 214.4375 267.867188 218.441406 C 269.652344 220.507812 271.375 222.660156 271.828125 225.5 C 272.300781 228.449219 271.097656 231.011719 268.621094 232.324219 C 266.207031 233.59375 263.234375 233.183594 261.105469 231.246094 C 260.265625 230.472656 259.683594 229.503906 259.058594 228.578125 C 256.820312 225.199219 254.730469 224.640625 251.070312 226.46875 C 249.796875 227.09375 248.570312 227.761719 247.128906 227.933594 C 244.21875 228.277344 241.65625 226.921875 240.367188 224.316406 C 239.203125 221.949219 239.742188 218.9375 241.722656 216.976562 C 243.421875 215.296875 245.578125 214.394531 247.773438 213.535156 C 248.980469 213.058594 250.230469 212.738281 251.5 212.542969 C 252.53125 212.394531 253.566406 212.328125 254.191406 212.265625 Z M 254.191406 212.265625 " fill-opacity="1" fill-rule="nonzero"/><path fill="#436221" d="M 563.765625 531.59375 C 563.632812 527.78125 563.894531 524.039062 564.582031 520.292969 C 564.777344 519.257812 565.097656 518.269531 565.617188 517.34375 C 567.210938 514.480469 570.007812 513.167969 572.894531 513.941406 C 575.867188 514.738281 577.890625 517.558594 577.761719 520.765625 C 577.738281 521.089844 577.738281 521.410156 577.675781 521.734375 C 576.535156 527.460938 577.03125 533.1875 577.546875 538.933594 C 577.695312 540.589844 577.804688 542.226562 577.203125 543.820312 C 576.191406 546.507812 573.820312 548.210938 571.019531 548.167969 C 568.371094 548.144531 565.9375 546.316406 565.011719 543.6875 C 564.691406 542.765625 564.558594 541.816406 564.472656 540.847656 C 564.214844 537.769531 564 534.671875 563.765625 531.59375 Z M 563.765625 531.59375 " fill-opacity="1" fill-rule="nonzero"/><path fill="#bc392a" d="M 435.195312 578.105469 C 435.195312 581.699219 433.109375 584.328125 429.941406 584.992188 C 427.054688 585.617188 423.933594 583.980469 422.707031 581.035156 C 422.015625 579.375 421.585938 577.589844 421.027344 575.867188 C 420.378906 573.929688 419.734375 571.972656 419.023438 570.054688 C 418.292969 568.054688 417.28125 566.203125 415.730469 564.652344 C 412.433594 561.339844 413.382812 557.398438 415.707031 555.203125 C 417.601562 553.417969 420.660156 553.03125 423.136719 554.257812 C 425.441406 555.398438 427.121094 557.226562 428.457031 559.378906 C 431.105469 563.707031 432.570312 568.527344 434.054688 573.328125 C 434.574219 574.984375 435.152344 576.640625 435.195312 578.105469 Z M 435.195312 578.105469 " fill-opacity="1" fill-rule="nonzero"/><path fill="#bc392a" d="M 462.699219 365.40625 C 458.324219 365.429688 455.332031 361.445312 456.429688 357.25 C 456.601562 356.558594 456.882812 355.871094 457.207031 355.226562 C 459.746094 350.082031 461.664062 344.722656 463.105469 339.167969 C 463.367188 338.15625 463.753906 337.1875 464.3125 336.285156 C 466.015625 333.574219 468.964844 332.433594 471.808594 333.402344 C 474.691406 334.371094 476.523438 337.273438 476.222656 340.394531 C 476.027344 342.289062 475.46875 344.097656 474.929688 345.90625 C 473.488281 350.683594 471.785156 355.375 469.609375 359.875 C 468.835938 361.46875 467.996094 363.015625 466.507812 364.117188 C 465.304688 364.976562 464.011719 365.449219 462.699219 365.40625 Z M 462.699219 365.40625 " fill-opacity="1" fill-rule="nonzero"/><path fill="#436221" d="M 475.058594 318.980469 C 475.015625 320.378906 475.015625 322.035156 474.628906 323.648438 C 473.507812 328.191406 469.351562 330.429688 465.433594 328.601562 C 462.957031 327.4375 461.425781 324.769531 461.730469 321.582031 C 462.09375 317.710938 461.511719 313.964844 460.371094 310.285156 C 459.960938 308.949219 459.382812 307.65625 458.886719 306.324219 C 458.152344 304.320312 458.023438 302.296875 459.035156 300.363281 C 460.179688 298.207031 461.988281 296.9375 464.441406 296.875 C 467.132812 296.789062 469.203125 298.058594 470.492188 300.363281 C 472.152344 303.289062 473.097656 306.496094 473.875 309.746094 C 474.605469 312.738281 475.039062 315.707031 475.058594 318.980469 Z M 475.058594 318.980469 " fill-opacity="1" fill-rule="nonzero"/><path fill="#436221" d="M 322.542969 346.980469 C 322.589844 351.933594 320.605469 354.796875 317.484375 355.503906 C 313.671875 356.386719 310.011719 354.042969 309.582031 350.082031 C 309.105469 345.667969 306.867188 342.589844 303.378906 340.117188 C 299.070312 337.058594 299.285156 331.097656 303.679688 328.835938 C 305.617188 327.847656 307.707031 327.695312 309.625 328.75 C 317.3125 332.949219 321.445312 339.578125 322.542969 346.980469 Z M 322.542969 346.980469 " fill-opacity="1" fill-rule="nonzero"/><path fill="#ec8827" d="M 451.15625 576.363281 C 451.132812 579.761719 449.171875 582.28125 446.050781 582.96875 C 443.121094 583.59375 439.914062 581.957031 438.730469 578.925781 C 436.640625 573.609375 434.660156 568.25 432.785156 562.84375 C 431.6875 559.660156 432.675781 556.734375 435.089844 554.96875 C 438.554688 552.449219 443.335938 554.042969 445.058594 558.367188 C 446.351562 561.617188 447.578125 564.890625 448.828125 568.183594 C 449.476562 569.90625 450.078125 571.671875 450.679688 573.414062 C 450.980469 574.359375 451.175781 575.351562 451.15625 576.363281 Z M 451.15625 576.363281 " fill-opacity="1" fill-rule="nonzero"/><path fill="#ec8827" d="M 590.964844 495.476562 C 591.050781 497.519531 590.167969 499.15625 588.894531 500.640625 C 586.054688 503.933594 582.910156 506.949219 579.828125 510.003906 C 577.785156 512.027344 574.746094 512.414062 572.3125 511.253906 C 570.117188 510.199219 568.671875 507.789062 568.761719 505.375 C 568.847656 503.570312 569.449219 501.976562 570.699219 500.683594 C 573.777344 497.433594 576.792969 494.121094 580 491.042969 C 583.167969 488.007812 587.753906 488.546875 589.972656 491.945312 C 590.683594 493.023438 591.070312 494.183594 590.964844 495.476562 Z M 590.964844 495.476562 " fill-opacity="1" fill-rule="nonzero"/><path fill="#bc392a" d="M 366.261719 295.648438 C 366.175781 296.1875 366.023438 297.175781 365.808594 298.144531 C 364.925781 302.320312 363.226562 306.195312 361.136719 309.875 C 358.984375 313.640625 354.890625 314.695312 351.554688 312.523438 C 349.207031 310.996094 348.171875 307.894531 349.054688 305.054688 C 349.507812 303.589844 350.304688 302.253906 350.949219 300.878906 C 351.898438 298.875 352.652344 296.789062 353.105469 294.613281 C 353.296875 293.625 353.640625 292.675781 354.160156 291.792969 C 355.773438 289.019531 358.550781 287.726562 361.375 288.480469 C 364.324219 289.296875 366.328125 292.011719 366.261719 295.648438 Z M 366.261719 295.648438 " fill-opacity="1" fill-rule="nonzero"/><path fill="#bc392a" d="M 467.15625 491.796875 C 467.21875 489.902344 467.886719 488.265625 469.222656 486.910156 C 471.9375 484.175781 474.671875 481.421875 477.386719 478.6875 C 478.160156 477.914062 479.042969 477.289062 480.035156 476.816406 C 482.789062 475.523438 485.632812 475.996094 487.59375 478.0625 C 489.53125 480.109375 489.855469 483.359375 488.347656 485.898438 C 488 486.480469 487.59375 487.058594 487.117188 487.535156 C 484.382812 490.308594 481.648438 493.109375 478.847656 495.820312 C 476.890625 497.714844 474.585938 498.683594 471.785156 497.929688 C 469.007812 497.21875 467.089844 494.679688 467.15625 491.796875 Z M 467.15625 491.796875 " fill-opacity="1" fill-rule="nonzero"/></svg>