<?xml version="1.0" encoding="iso-8859-1"?>
<!-- Uploaded to: SVG Repo, www.svgrepo.com, Generator: SVG Repo Mixer Tools -->
<svg version="1.1" id="Layer_1" xmlns="http://www.w3.org/2000/svg" xmlns:xlink="http://www.w3.org/1999/xlink" 
	 viewBox="0 0 512.001 512.001" xml:space="preserve">
<path style="fill:#C66500;" d="M426.988,239.353c2.306-7.874,3.543-16.206,3.543-24.827c0-48.698-39.477-88.175-88.173-88.175
	c-21.256,0-40.753,7.522-55.979,20.047c-23.807-9.905-49.921-15.384-77.316-15.384C97.796,131.014,7.6,221.212,7.6,332.477
	c0,70.172,56.886,127.059,127.059,127.059h148.807c70.172,0,127.058-56.886,127.058-127.059c0-18.743-2.57-36.884-7.358-54.102
	c6.247-5.951,11.622-12.809,15.913-20.363"/>
<path style="fill:#FFE285;" d="M495.812,102.64c-11.481-11.478-30.092-11.477-41.569,0c11.475-11.477,11.477-30.086-0.002-41.567
	c-11.477-11.48-30.089-11.477-41.568,0.002c-11.479,11.478-11.479,30.087-0.001,41.566c1.359,1.36,2.819,2.551,4.354,3.587
	l-31.447,31.449c6.847,3.856,13.297,8.674,19.127,14.501c5.829,5.828,10.646,12.281,14.503,19.129l31.449-31.449
	c1.034,1.533,2.226,2.993,3.584,4.352c11.479,11.478,30.088,11.479,41.567,0.001C507.288,132.729,507.288,114.119,495.812,102.64z"
	/>
<g>
	<path style="fill:#53180F;" d="M501.184,97.265c-6.988-6.987-16.277-10.834-26.159-10.834c-1.658,0-3.299,0.108-4.916,0.321
		c1.46-11.03-2.038-22.597-10.493-31.053c-6.986-6.988-16.274-10.835-26.156-10.835c-9.883,0-19.173,3.848-26.16,10.836
		c-6.988,6.988-10.836,16.276-10.836,26.157c0,9.218,3.349,17.92,9.469,24.717l-21.786,21.787
		c-12.636-6.153-26.815-9.61-41.789-9.61c-20.611,0-40.748,6.702-57.204,18.957c-24.242-9.487-49.817-14.293-76.091-14.293
		C93.785,123.415,0,217.2,0,332.477c0,74.25,60.408,134.659,134.659,134.659h148.807c74.25,0,134.657-60.408,134.657-134.658
		c0-17.535-2.181-34.945-6.486-51.825c5.443-5.7,10.158-12.037,14.049-18.886l-13.216-7.506c-3.905,6.876-8.8,13.139-14.546,18.613
		l-0.025,0.022c-15.042,14.321-34.765,22.206-55.542,22.205v15.199c0.001,0,0.002,0,0.004,0c20.444,0,40.02-6.44,56.303-18.31
		c2.82,13.265,4.261,26.833,4.261,40.488c0,65.87-53.589,119.459-119.458,119.459H134.659
		c-65.87,0.001-119.459-53.588-119.459-119.458c0-106.897,86.967-193.863,193.863-193.863c21.75,0,42.976,3.564,63.265,10.579
		c-16.485,17.638-25.743,40.839-25.744,65.333h15.199c0.001-24.169,10.712-46.849,29.389-62.23l0.035-0.029
		c14.358-11.811,32.524-18.316,51.151-18.316c44.429,0,80.574,36.146,80.574,80.576c0,7.723-1.089,15.357-3.236,22.691l14.586,4.273
		c2.554-8.721,3.85-17.794,3.85-26.963c0-14.972-3.456-29.152-9.608-41.787l21.788-21.787c6.799,6.119,15.5,9.466,24.717,9.467
		c0,0,0,0,0.001,0c9.879,0,19.168-3.848,26.156-10.835C515.605,135.16,515.606,111.69,501.184,97.265z M490.434,138.835
		c-4.116,4.117-9.588,6.384-15.408,6.384c-5.821-0.001-11.294-2.268-15.409-6.383c-0.982-0.982-1.878-2.068-2.66-3.23l-5.156-7.642
		l-31.258,31.258c-3.134-4.432-6.635-8.589-10.466-12.419c-3.832-3.832-7.988-7.332-12.417-10.463l31.255-31.257l-7.638-5.156
		c-1.166-0.787-2.254-1.683-3.232-2.663c-4.116-4.116-6.383-9.588-6.383-15.408c0-5.82,2.267-11.293,6.385-15.41
		c4.117-4.117,9.591-6.385,15.413-6.385c5.82,0,11.291,2.267,15.407,6.383c8.497,8.498,8.498,22.324,0.002,30.821l10.748,10.746
		c4.116-4.116,9.587-6.383,15.408-6.383c5.821,0,11.295,2.267,15.412,6.383C498.934,116.51,498.932,130.339,490.434,138.835z"/>
	<rect x="154.93" y="421.533" style="fill:#53180F;" width="128.544" height="15.199"/>
	<path style="fill:#53180F;" d="M45.597,332.477H30.398c0,57.488,46.771,104.26,104.26,104.26v-15.199
		C85.55,421.538,45.597,381.586,45.597,332.477z"/>
</g>
</svg>